PathFileType	4	(X/Y/Z)	D:\TRACE\v60_Jaco2_6-2-23\BothDRS_Motion1_3-platform.trc
DataRate	CameraRate	NumFrames	NumMarkers	Units	OrigDataRate	OrigDataStartFrame	OrigNumFrames
100.00	100.00	      48	5	mm	100.00	6189	      7073
Frame#	Time	Left_Front			Right_Front			Left_Aft			Right_Aft			Post			
		X1	Y1	Z1	X2	Y2	Z2	X3	Y3	Z3	X4	Y4	Z4	X5	Y5	Z5	

6189	61.880	-821.41125	28.98856	-633.72705	748.76263	29.60691	-638.73773	-729.58539	-5.94175	500.76794	713.41528	-7.11864	510.93610	-34.47983	1336.60168	-918.85730	
6190	61.890	-820.69312	29.41995	-633.62952	749.43646	29.81804	-638.67896	-728.86292	-5.87936	500.80777	714.06641	-7.15288	510.81326	-33.86408	1337.05164	-918.28931	
6191	61.900	-819.61200	29.54737	-633.66382	750.39679	30.28845	-638.66162	-727.96729	-6.12331	500.90204	714.82904	-7.64690	510.78757	-33.29111	1337.58459	-918.07428	
6192	61.910	-818.83313	29.78792	-633.65192	751.31049	30.59538	-638.47778	-726.91718	-6.35880	500.97458	715.42938	-8.13445	510.64359	-32.06403	1337.67773	-917.50262	
6193	61.920	-818.03271	29.89873	-633.46051	752.13239	30.66131	-638.51093	-726.39136	-6.46505	501.12750	715.78064	-8.32018	510.61536	-31.02347	1337.96802	-916.57733	
6194	61.930	-817.10559	30.13594	-633.50244	752.96844	30.79518	-638.48901	-725.62939	-6.75926	501.20453	717.03809	-8.47878	510.85376	-30.49122	1338.47119	-915.75403	
6195	61.940	-816.09235	30.55713	-633.53918	753.79980	30.99495	-638.44086	-724.32758	-6.92026	501.12421	717.93671	-8.50912	511.02335	-29.89993	1338.86096	-914.48315	
6196	61.950	-815.18884	30.74517	-633.17560	754.90503	31.49618	-638.21820	-723.56482	-6.98137	501.10257	718.97736	-8.64094	510.91760	-28.59086	1339.15344	-913.62836	
6197	61.960	-814.44171	30.98435	-633.07666	755.85272	31.80482	-638.11938	-722.66382	-6.83777	501.16888	719.90411	-9.07622	511.04608	-27.67775	1339.59009	-912.89307	
6198	61.970	-813.44763	31.15380	-633.05164	756.73480	31.88162	-638.24091	-721.87225	-7.17598	501.16824	720.38843	-9.24909	511.09198	-27.08591	1339.97229	-912.31653	
6199	61.980	-812.66278	31.21234	-633.10712	757.52509	32.01754	-638.11261	-721.09430	-7.51518	501.30353	721.45233	-9.24160	511.26898	-26.00397	1340.31689	-911.87817	
6200	61.990	-811.50696	31.28038	-633.07043	758.32910	32.36276	-638.15405	-719.62335	-8.06342	501.27240	722.73907	-9.48311	511.01563	-25.05481	1340.50647	-911.62415	
6201	62.000	-810.52118	31.91791	-632.92468	759.40625	32.84305	-637.94275	-718.86853	-8.04810	501.28644	723.51770	-9.55490	511.06079	-24.05921	1340.70532	-911.45575	
6202	62.010	-809.97906	32.25689	-632.76794	760.28534	33.02013	-637.90149	-718.37427	-7.64135	501.48370	724.42029	-9.83679	511.11258	-23.13089	1341.13586	-911.02985	
6203	62.020	-808.98273	32.37841	-632.83752	761.28693	33.26547	-637.91229	-717.40564	-7.87226	501.60361	725.30969	-10.04172	511.01059	-22.32005	1341.65063	-910.91370	
6204	62.030	-807.79333	32.49001	-632.86334	762.09882	33.31470	-638.07458	-716.40381	-8.23460	501.58801	726.08197	-10.18920	511.01807	-21.19294	1341.84851	-910.60449	
6205	62.040	-806.80170	32.63695	-632.89929	763.14795	33.54894	-637.99457	-715.43372	-8.51398	501.67694	727.38556	-10.40244	511.23425	-20.21245	1341.98547	-910.01410	
6206	62.050	-806.17480	33.03992	-632.78839	764.11554	33.75974	-637.78833	-714.44293	-8.52662	501.67715	727.72473	-10.59764	510.85089	-19.75286	1342.44373	-909.68604	
6207	62.060	-804.97626	33.49347	-632.68658	765.03412	34.04686	-637.61688	-713.23462	-9.00413	501.46124	729.05884	-10.52254	511.51517	-18.38152	1342.95850	-908.69159	
6208	62.070	-803.95520	33.63392	-632.74792	766.06421	34.24299	-637.69684	-712.78906	-8.56197	501.63889	730.24493	-10.81355	511.44452	-17.41190	1343.22095	-907.96057	
6209	62.080	-803.19006	33.54591	-632.37317	767.03546	34.47293	-637.77374	-711.80341	-8.88523	501.66974	730.80127	-10.91874	511.52530	-16.50611	1343.47986	-907.17499	
6210	62.090	-802.26367	34.02703	-632.71960	768.01965	34.56618	-637.61420	-710.71173	-9.25165	501.72299	732.07489	-11.20170	511.59030	-15.98664	1343.78174	-906.50403	
6211	62.100	-801.14819	34.14119	-632.65314	768.75690	34.76564	-637.50952	-709.44922	-9.84563	501.87180	732.87476	-11.22637	511.53458	-14.46471	1344.02417	-905.75549	
6212	62.110	-800.22119	34.15819	-632.48206	769.92743	34.98166	-637.38177	-708.03967	-9.90467	501.94409	733.93634	-11.31051	511.49969	-13.21793	1344.48193	-905.67279	
6213	62.120	-799.15826	34.41762	-632.33405	770.80859	35.19806	-637.51678	-707.71313	-9.49212	501.88589	734.88666	-11.63942	511.49573	-12.63838	1344.51917	-905.30054	
6214	62.130	-798.43695	34.61216	-632.33008	771.84088	35.47744	-637.34741	-706.90588	-9.57681	501.80658	735.50684	-11.75944	511.59424	-11.80173	1344.74805	-904.81165	
6215	62.140	-797.30145	34.65776	-632.45605	772.78070	35.71913	-637.18793	-705.63641	-9.65827	501.67130	736.70941	-11.78967	511.81375	-10.49557	1344.82190	-904.83740	
6216	62.150	-796.30273	34.74642	-632.15295	773.78351	35.78319	-637.25189	-705.01294	-9.97747	501.91959	737.96344	-11.93547	511.68408	-10.01783	1345.32593	-904.69666	
6217	62.160	-795.21796	34.97438	-632.19324	774.58905	35.90771	-637.19574	-703.66205	-10.28844	502.07315	738.83954	-11.97759	511.73334	-8.71202	1345.60400	-904.66907	
6218	62.170	-794.59412	35.26147	-632.12170	775.69220	36.07578	-637.27124	-702.41370	-10.72195	501.99881	740.00006	-12.00759	511.86517	-7.70947	1345.83301	-904.35907	
6219	62.180	-793.15851	35.34105	-632.05963	776.72998	36.35111	-637.05524	-701.67700	-10.64058	502.03159	741.01807	-12.19604	511.72888	-6.80971	1346.02026	-903.85162	
6220	62.190	-792.40588	35.59882	-631.95856	777.67157	36.89751	-637.00970	-700.66504	-10.63220	502.05176	741.57629	-12.32046	511.80246	-5.89416	1346.11646	-903.22180	
6221	62.200	-791.51471	35.71849	-631.65839	778.53021	37.04269	-637.12769	-699.96271	-10.52348	502.01709	742.74994	-12.58688	511.81110	-4.92198	1346.31946	-902.57721	
6222	62.210	-790.48486	35.97226	-632.04871	779.48676	36.74541	-637.14819	-699.35242	-10.46534	502.18610	743.37787	-12.69770	511.88135	-3.86002	1346.90857	-901.80225	
6223	62.220	-789.51031	35.83902	-632.29083	780.52740	36.87254	-636.99188	-697.61279	-11.20847	502.13873	744.94574	-12.61491	511.82260	-3.11487	1347.19995	-901.46655	
6224	62.230	-788.59003	35.93118	-631.89777	781.38324	37.14920	-636.96747	-696.58154	-11.38274	502.09766	745.73846	-13.03080	511.82404	-2.29075	1347.29211	-900.91931	
6225	62.240	-787.77423	36.34116	-631.53760	782.51239	37.64844	-636.90601	-696.06183	-11.34284	502.02371	746.08344	-13.16180	511.50580	-1.08565	1347.28149	-900.54694	
6226	62.250	-786.83569	36.52180	-631.72406	783.58234	37.62756	-636.90839	-694.93018	-10.81665	501.79559	747.53912	-13.29804	512.23395	0.00266	1347.65137	-900.52673	
6227	62.260	-785.72620	37.04394	-632.10437	784.36505	37.88700	-636.77295	-693.59229	-12.00537	502.43253	748.52893	-13.25063	512.02539	0.67563	1348.12183	-900.39990	
6228	62.270	-784.77997	36.93529	-631.81445	785.19006	37.97988	-636.82281	-692.68896	-11.89702	502.38016	749.98816	-13.00523	512.17004	1.81997	1348.28137	-899.94836	
6229	62.280	-783.94836	36.89598	-631.61761	786.25928	38.00360	-636.90680	-691.73608	-12.04224	502.19696	750.63495	-13.21774	512.28851	2.97915	1348.30457	-899.74756	
6230	62.290	-782.65515	37.31221	-631.94672	787.21857	38.29281	-636.80518	-691.73608	-11.20669	502.42249	751.17834	-13.54610	512.20483	3.75542	1348.27405	-899.56104	
6231	62.300	-781.97345	37.38296	-631.99432	788.08722	38.39561	-636.64056	-690.76654	-11.25863	502.37863	752.51538	-13.52748	512.11725	4.52646	1348.45251	-899.20300	
6232	62.310	-781.10187	37.24855	-631.49902	789.21112	38.54653	-636.64197	-688.83197	-12.41681	502.35849	753.16046	-13.63920	512.13867	5.49234	1348.64795	-898.92737	
6233	62.320	-780.08447	37.58429	-631.67273	790.02185	38.42676	-636.69495	-688.13110	-12.19997	502.33441	754.16467	-13.79257	512.17407	6.47945	1348.90479	-898.91101	
6234	62.330	-778.97235	37.56958	-631.83673	791.01318	38.59636	-636.62732	-687.09546	-12.21753	502.36676	755.19495	-13.70642	512.13086	7.58990	1349.21936	-898.62115	
6235	62.340	-778.29889	37.58055	-631.85376	791.83203	38.72452	-636.68713	-685.88757	-13.15071	502.63367	755.92310	-13.86525	511.99225	8.33510	1349.18555	-898.69110	
6236	62.350	-777.46234	37.58771	-631.54309	792.68958	38.73027	-636.78674	-685.25317	-12.92115	502.38516	756.83698	-14.22912	512.20972	9.28752	1349.31604	-898.56061	
